# xmcd
#
# Track frame offsets:
#	150
#	15013
#	27788
#	41332
#	54930
#	71185
#	81517
#	99839
#	117449
#	129936
#
# Disc length: 1880 seconds
#
# Revision: 1
# Processed by: cddbd v1.5.1PL0 Copyright (c) Steve Scherf et al.
# Submitted via: audiograbber 1.83.01
#
DISCID=7007560a
DTITLE=misc - Country Story Songs
DYEAR=1900
DGENRE=
TTITLE0=Jeannie C Riley - Harper Valley P.T.A.
TTITLE1=claude king - Wolverton Mountain
TTITLE2=jimmy dean - Big Bad John
TTITLE3=stonewall jackson - B.J. The D.J.
TTITLE4=dickey lee - Rocky
TTITLE5=johnny darrell - Ruby, Dont Take Your Love To Town
TTITLE6=lynn anderson - Midnight Train To Georgia
TTITLE7=ferlin husky - Convoy
TTITLE8=porter wagoner - The Carrol County Accident
TTITLE9=S Sgt Barry sadler - The Ballad Of The Green Berets
EXTD=
EXTT0=
EXTT1=
EXTT2=
EXTT3=
EXTT4=
EXTT5=
EXTT6=
EXTT7=
EXTT8=
EXTT9=
PLAYORDER=
